<?xml version="1.0" encoding="UTF-8"?>
<svg version="1.1" viewBox="0 0 2000 2000" width="500" height="500" xmlns="http://www.w3.org/2000/svg">
<path transform="translate(0)" d="m0 0h2e3v2e3h-2e3z" fill="#FEFFFE"/>
<path transform="translate(283,708)" d="m0 0 9 1 21 11 15 10 14 11 11 10 7 8 14 18 2 5 7-3 18-10 18-8 5-1 6 5 11 14 10 15 12 23 6 15 5 16 4 20 2 22v12l-2 21-4 19-8 24-11 23-13 20-9 11-9 10-9 9-14 11-15 10-15 8-20 8-25 7-21 3h-35l-20-3-23-6-16-6-23-12-12-8-13-11-12-11-10-11-13-18-10-17-9-20-7-21-4-20-2-21 1-25 3-20 6-23 8-19 9-17 12-18 11-13 4-5 9 1 25 11 12 7h2l7-11 8-10 13-14 11-9 10-8 17-11z" fill="#869BFE"/>
<path transform="translate(159,791)" d="m0 0 5 1 19 10 17 12 15 13 12 14 13 18 10 19 8 21 5 23 2 14v35l-5 25-3 11-4 1-10-10-7-6-7-8-9-13-9-15-7-16-7-24-3-22v-26l3-19 5-17-1-3-15-10-2-2h-4l-7 26-3 17-1 11v25l4 25 6 21 6 15 8 17 11 17 10 13 9 10 14 13 13 10 13 8 4 2 4-8 11-29 4-14 3 1 3 9 4 15 9 25 5-1 18-12 11-9 10-9 10-10 13-17 9-15 10-21 5-15 5-21 3-21v-29l-3-20-6-26v-3l-7 3-13 10-2 1 1 8 4 20 1 7v33l-3 18-5 18-8 19-10 17-11 15-11 12-10 9-3 1-2-3-4-24-1-10v-30l4-25 6-20 5-13 8-16 9-15 11-15 12-14 10-9 14-10 24-13 5 1 14 21 9 19 7 21 3 14 2 17v28l-4 23-8 24-8 16-9 15-9 11-9 10-9 9-13 10-13 8-16 8-14 6-18 5-16 3-9 1h-23l-20-3-25-7-18-8-16-9-16-11-15-14-10-11-8-11-10-18-7-17-6-21-3-20v-32l3-18 4-15 6-16 8-16 14-21z" fill="#FEFFFE"/>
<path transform="translate(180,816)" d="m0 0 5 1 11 8 7 5-3 12-4 18-1 8v26l3 22 7 24 9 20 9 14 8 11 10 11 8 7 4 4h3l6-24 4-27 4 1 1-2 2-2 4 1 5 5 1 5 7-3 4-4h2l3-6 6-9 4-1 1 1 2 29 3 22 2 12 2 2 9-7 10-10 10-13 11-18 7-14 6-17 5-21 1-8v-33l-4-22-2-8v-5l16-12 3-2h4l6 24 3 16 1 9v29l-3 21-5 21-7 20-8 16-9 15-11 14-9 10-11 11-14 11-15 10-5 3-4-1-11-31-4-16-3-3-4 17-12 31-3 4-4-2-17-11-13-11-13-12-9-10-13-18-10-18-7-16-7-21-4-19-2-14v-25l2-17 5-23 4-14z" fill="#75C1FC"/>
<path transform="translate(284,736)" d="m0 0 6 1 19 11 13 10 10 9 8 8 13 17 3 4-1 5-16 16-8 10-9 12-9 15-8 16-6 14-6 20-2 11-3-1-4-13-7-20-7-17-11-20-12-17-10-11-7-8-11-10 1-6 12-14 7-8 12-12 15-11z" fill="#FEFFFE"/>
<path transform="translate(118,948)" d="m0 0 7 2 1-2 5 5v2h2l8 18 10 17 13 16 11 11 10 8 17 11 19 10 16 6 23 6 16 2h23l21-3 19-5 15-6 16-8 12-7 12-9 12-11 7-7 13-17 10-17 3-7 4-2 4 4-1 7v10l5-6 4-5 5-8 7-8h1v6l-8 18-8 15-10 15-9 11-9 10-9 9-14 11-15 10-15 8-20 8-25 7-21 3h-35l-20-3-23-6-16-6-23-12-12-8-13-11-12-11-10-11-13-18-10-17-6-13 1-9-1-6 1-5 3-1v2h2z" fill="#75C1FC"/>
<path transform="translate(960,861)" d="m0 0 9 1 11 4 8 6 2 3 5-1 8-6 12-5 4-1h14l10 3 9 6 7 9 3 8 1 4 1 63-2 1h-11l-14-1-1-56-3-7-5-4-5-2h-9l-8 4-6 9-1 6v50l-6 1-20-1-1-1v-46l-2-13-6-7-5-2h-10l-8 5-4 5-2 4-1 55h-26l-1-1v-59l1-31 14-1h10l1 9 5-2 8-5 8-3z" fill="#869BFE"/>
<path transform="translate(1306,833)" d="m0 0h15l19 4 13 5 3 2-1 6-5 12-1 2-6-1-15-5-4-1h-20l-9 5-3 5 1 7 5 4 15 5 25 7 12 6 7 7 4 8 1 3v12l-4 11-9 10-12 7-15 4h-23l-19-5-13-5-4-3 1-6 5-13 5-1 14 6 18 4h11l10-3 5-4 1-2v-7l-5-5-15-5-21-6-12-5-9-7-5-8-2-8v-8l3-10 6-9 9-7 7-4z" fill="#869BFE"/>
<path transform="translate(618,833)" d="m0 0h12l15 3 12 5 11 7 6 7-15 15-5-1-8-6-10-4-5-1h-13l-11 4-9 7-7 11-3 12 1 13 4 11 6 8 10 6 9 3h16l11-4 8-6 2-2 5 1 13 13-1 4-8 7-10 6-15 5-4 1h-21l-16-5-10-5-11-9-6-7-8-16-3-11v-18l3-13 6-12 7-9 11-9 14-7z" fill="#869BFE"/>
<path transform="translate(1153,862)" d="m0 0h18l12 3 10 5 8 9 4 8 2 7v61l-1 1h-23l-1-2v-6l-4 1-7 5-9 3h-16l-10-3-8-6-6-7-2-5v-13l3-7 7-8 7-4 7-2 9-1h25l2-1-1-7-5-5-6-3-5-1h-8l-10 2-11 5-3-1-7-13 1-5 12-6z" fill="#869BFE"/>
<path transform="translate(339,830)" d="m0 0h2l-1 11 5-3 2-3 9-4 3 1-8 10-12 18-8 14-7 16-5 15-5 21-2 15-1 20h-1l-1-19h-4l-1 4-6 8-2 4-4 2-5 4h-4l-4-8-3-2h-3l-3 3-4-1v9h-1l-1-29-4-25-5-18-12-28-3-20 1-2 5-1 2 1v-5l9 2 8 13 8 16 6 14 6 18 4 13 2 1v-7l6-21 6-15 8-16 6-7 17-17z" fill="#83ADFE"/>
<path transform="translate(1419,863)" d="m0 0h10l3 4 16 39 7 16 3 2 1-6 13-30 10-23 1-1h24l-1 5-13 30-17 40-11 26-8 13-8 7-8 4-7 2h-12l-12-4-6-4 1-7 6-11 6 1 6 2h8l7-4 3-4-1-9-11-26-26-60v-1z" fill="#869BFE"/>
<path transform="translate(1606,862)" d="m0 0h15l12 4 9 7 7 11 2 8 1 63-3 1h-11l-13-1-1-57-3-6-5-4-5-2h-10l-8 4-6 7-2 4-1 54-2 1h-17l-8-1v-90l1-1 24-1 1 1 1 8 11-6 7-3z" fill="#869BFE"/>
<path transform="translate(1748,862)" d="m0 0h18l13 4 10 6 8 8 2 6-18 10-4-2-6-5-8-4h-12l-8 4-6 7-3 9v10l4 10 4 5 8 4 10 1 9-3 8-7 5-1 17 9-1 4-7 8-8 6-11 5-5 1h-19l-13-4-10-6-9-9-6-10-3-9v-19l4-11 7-11 11-9 8-4z" fill="#869BFE"/>
<path transform="translate(180,816)" d="m0 0 5 1 11 8 7 5-3 12-4 18-1 8v26l3 22 7 24 5 12-1 2-3-4-3-2h-2l-1 5-4 1-2-1-4 10-1 3-3-4-6-15-6-18-4-19-2-14v-25l2-17 5-23 4-14z" fill="#83AEFD"/>
<path transform="translate(391,817)" d="m0 0h4l6 24 3 16 1 9v29l-3 21-5 21-2 3-4 2-12 20-4 4-2 3h-2l-1 3-2-2 1-9 1-5v-3l-3-1v-2h-2v3l-2-1 8-20 6-25 1-8v-33l-4-22-2-8v-5l16-12z" fill="#83ADFD"/>
<path transform="translate(749,828)" d="m0 0h6l1 8v119l-3 1h-15l-8-1-1-3v-85l1-38z" fill="#869BFE"/>
<path transform="translate(460,844)" d="m0 0h3l3 4 4 5v2h4l2 1 3 20 1 14v12l-2 21-4 19-5 16h-3l-7 7-5 9h-2l-2 5-5 4v-11l1-7-4-3-2 1 3-10 6-18 4-23v-28l-2-17 1-8 3-6 3-8z" fill="#83AEFD"/>
<path transform="translate(116,831)" d="m0 0 1 4 2 4 4 2 9-4-2 9-4 15-3 18v32l3 20 6 21-1 3-2-4-3-2-3 1-5-2v3l-5-1v8l1 8h-2l-1 2-7-20-4-15-3-19-1-22 2-25 3-16 6-5 4-7z" fill="#83AEFD"/>
<path transform="translate(835,863)" d="m0 0h9l1 1v91l-5 1-21-1-1-1v-90z" fill="#869CFE"/>
<path transform="translate(283,774)" d="m0 0h11l8 5 7 8 2 6v10l-6 9-8 6-7 2-9-1-7-4-7-8-2-6v-9l5-10 8-6z" fill="#869BFE"/>
<path transform="translate(826,821)" d="m0 0h12l7 6 3 7v6l-5 6-7 4h-10l-8-6-3-6 2-9 4-5z" fill="#869BFE"/>
<path transform="translate(1172,917)" d="m0 0h7l2 2-1 9-4 6-10 5h-12l-5-3-4-5v-6l5-6 3-1z" fill="#FEFFFE"/>
<path transform="translate(180,816)" d="m0 0 5 1-1 7-5 10h-2v3h-2l1-9 3-11z" fill="#869CFE"/>
</svg>
