<svg xmlns="http://www.w3.org/2000/svg" version="1.1" viewBox="27.06 154.48 423.94 96.84">
<path d="M0 0 C7.13239478 3.5821893 12.38502244 7.99580097 17.1484375 14.375 C18.90246114 16.29915918 18.90246114 16.29915918 21.48828125 15.84765625 C23.64854285 15.11860996 25.73506651 14.37438177 27.8125 13.4375 C28.864375 12.963125 29.91625 12.48875 31 12 C40.26810715 20.1777416 45.26139128 31.78555354 46.23828125 43.97265625 C46.59711549 58.91149209 41.55431909 71.24312644 31.5 82.1875 C22.00058922 91.27202687 10.17975661 95.77373227 -2.875 96.3125 C-17.81926278 95.93772225 -29.74037078 89.51162011 -40 79 C-49.31377096 68.14534781 -52.62930738 55.04784069 -51.82421875 40.9140625 C-50.55365402 31.1345643 -46.34888199 21.36035378 -39.56640625 14.08203125 C-38 13 -38 13 -34.5 12.875 C-31.1050189 13.96624392 -28.10767126 15.25667222 -25 17 C-24.7421875 16.41992188 -24.484375 15.83984375 -24.21875 15.2421875 C-20.10267894 7.66967216 -9.0889678 -3.01562975 0 0 Z M-15 16 C-16.70210873 17.9699951 -17.78541407 19.68650299 -19 22 C-18.11248047 22.99966797 -18.11248047 22.99966797 -17.20703125 24.01953125 C-11.78395632 30.34497754 -8.1066913 36.30189346 -5 44 C-4.34692642 45.3400437 -3.68503439 46.67600978 -3 48 C-0.91180049 44.86770073 0.57982085 41.71548217 2.1875 38.3125 C5.0378641 32.42301605 8.29023006 27.60956207 13 23 C9.73964886 16.67108308 4.43608153 11.12609674 -2 8 C-6.72072794 8 -11.49427636 13.11049662 -15 16 Z M-35 22 C-35.763125 22.969375 -36.52625 23.93875 -37.3125 24.9375 C-37.74175781 25.48277344 -38.17101562 26.02804688 -38.61328125 26.58984375 C-42.42346036 33.21204237 -43.535925 39.8841505 -43.4375 47.4375 C-43.42847656 48.27079834 -43.41945313 49.10409668 -43.41015625 49.96264648 C-43.09050412 61.32028633 -38.76307377 68.7820013 -31 77 C-28.80353692 78.99225676 -26.55365825 80.50413324 -24 82 C-23.34257813 82.4640625 -22.68515625 82.928125 -22.0078125 83.40625 C-13.85825131 88.48210126 -4.26285596 88.180133 5 87 C18.49825532 83.75602011 26.76896701 76.59631098 34 65 C38.68272392 56.60339159 39.01340217 45.6224573 36.80078125 36.42578125 C34.95008516 30.81952625 33.00277218 25.33518145 28 22 C26.35 22.99 24.7 23.98 23 25 C23.2165625 25.52464844 23.433125 26.04929688 23.65625 26.58984375 C28.08239493 38.90518219 27.25413269 52.39066499 22.00390625 64.25 C17.83779521 72.55339086 11.26136634 80.56707172 3 85 C2.34 85 1.68 85 1 85 C-0.32 82.03 -1.64 79.06 -3 76 C-5.18975773 79.28463659 -5.99806563 82.20696275 -7 86 C-19.73701796 78.92908194 -27.69858982 69.51172346 -31.74609375 55.3984375 C-33.81246035 46.19241803 -33.18587047 38.66603585 -30.65625 29.6015625 C-29.87770477 26.96236282 -29.87770477 26.96236282 -30 24 C-32.475 23.01 -32.475 23.01 -35 22 Z M-25 29 C-26.04719004 52.21676225 -26.04719004 52.21676225 -14.55078125 71.671875 C-13.08712002 73.2168254 -13.08712002 73.2168254 -11 73 C-8.08788194 64.26364581 -8.95965458 51.93534155 -12.58984375 43.54296875 C-17.25330509 34.58916233 -17.25330509 34.58916233 -25 29 Z M16 31 C7.28586677 40.46890068 3.8058876 50.45930016 3.875 63.1875 C3.87113281 63.91130859 3.86726563 64.63511719 3.86328125 65.38085938 C3.79545674 69.31916502 3.79545674 69.31916502 5 73 C11.13740608 70.49466577 14.19926437 64.07854026 16.8125 58.25 C20.01878921 49.4748927 20.19819773 39.79504375 17 31 C16.67 31 16.34 31 16 31 Z " fill="#E9EEFD" transform="translate(79,155)"/>
<path d="M0 0 C0.66 0 1.32 0 2 0 C1.67 3.63 1.34 7.26 1 11 C2.32 11.33 3.64 11.66 5 12 C5.33 10.35 5.66 8.7 6 7 C6.33 7 6.66 7 7 7 C7.03867187 8.77503906 7.03867187 8.77503906 7.078125 10.5859375 C7.51832874 24.58945583 9.6587192 34.74725756 20 45 C23.18757824 47.33657356 26.47364361 49.2257674 30 51 C30.90363281 51.53753906 31.80726562 52.07507813 32.73828125 52.62890625 C36.95600017 54.40186354 40.53026466 54.53539037 45.0625 54.5 C45.90014893 54.49500488 46.73779785 54.49000977 47.60083008 54.48486328 C58.20127959 54.19026526 68.41920359 50.64744077 76 43 C84.53986287 32.73491231 87.69400729 22.7974622 86.83203125 9.38671875 C86.61101399 7.58334607 86.31574465 5.78921966 86 4 C86.66 3.67 87.32 3.34 88 3 C88.4021875 4.175625 88.4021875 4.175625 88.8125 5.375 C89.84814432 8.28114923 89.84814432 8.28114923 93 10 C92.55296014 5.52116304 92.55296014 5.52116304 90 2 C91.32 1.34 92.64 0.68 94 0 C97.84152941 14.16563972 96.49013621 27.25088871 89.375 40.1875 C81.58507749 52.12429669 70.73828507 60.24834696 56.75 63.4375 C43.82362485 65.33224554 31.08775765 63.16820001 20 56 C8.79606115 47.0951353 0.62543023 36.59681956 -1.40625 22.1015625 C-2.2105591 14.40578681 -1.64535298 7.54686697 0 0 Z " fill="#F5F8FD" transform="translate(29,187)"/>
<path d="M0 0 C7.13239478 3.5821893 12.38502244 7.99580097 17.1484375 14.375 C18.90246114 16.29915918 18.90246114 16.29915918 21.48828125 15.84765625 C23.64854285 15.11860996 25.73506651 14.37438177 27.8125 13.4375 C28.864375 12.963125 29.91625 12.48875 31 12 C36.58931681 16.93175013 41.02259202 23.16018294 42.875 30.4375 C42.96536254 32.28993212 43 34.14536523 43 36 C43.63514826 38.34210921 44.2986716 40.67684969 45 43 C44.01 43 43.02 43 42 43 C40 41 40 41 39.0625 39.0625 C38.13646067 36.97881024 38.13646067 36.97881024 36.59375 35.69140625 C34.62652831 33.60364402 33.64483107 31.47132951 32.4375 28.875 C30.95747651 25.23783085 30.95747651 25.23783085 28 23 C24.47105052 23.08743691 24.47105052 23.08743691 21 24 C19.69934079 25.93383287 19.69934079 25.93383287 19 28 C17.515 28.495 17.515 28.495 16 29 C13.56677656 31.21202131 11.83318214 33.25022679 10 36 C7.375 36.1875 7.375 36.1875 5 36 C5.29123499 30.02968261 8.02814384 27.105466 12 23 C9.94907613 19.25198578 7.76075744 16.57611619 4.5625 13.75 C3.80066406 13.06421875 3.03882813 12.3784375 2.25390625 11.671875 C-0.595638 9.51317503 -0.595638 9.51317503 -4 9 C-6.80574138 10.45749185 -6.80574138 10.45749185 -9.5625 12.625 C-10.51253906 13.31851563 -11.46257812 14.01203125 -12.44140625 14.7265625 C-14.98315085 16.98502869 -16.43844751 19.00308107 -18 22 C-17.36771484 22.67095703 -17.36771484 22.67095703 -16.72265625 23.35546875 C-11 29.67058824 -11 29.67058824 -11 34 C-11.66 34.66 -12.32 35.32 -13 36 C-13.33 35.01 -13.66 34.02 -14 33 C-15.65 33.66 -17.3 34.32 -19 35 C-19.61875 34.195625 -20.2375 33.39125 -20.875 32.5625 C-22.74164041 29.96125481 -22.74164041 29.96125481 -25 29 C-25 28.34 -25 27.68 -25 27 C-25.66 27 -26.32 27 -27 27 C-27 26.34 -27 25.68 -27 25 C-28.1446875 24.7834375 -28.1446875 24.7834375 -29.3125 24.5625 C-32 24 -32 24 -35 23 C-39.23504385 28.74755951 -41.64950082 35.01092049 -43.9296875 41.74609375 C-44.28289063 42.48988281 -44.63609375 43.23367187 -45 44 C-46.485 44.495 -46.485 44.495 -48 45 C-51.19035613 40.21446581 -50.03105616 35.4900393 -49 30 C-46.85986085 23.93912592 -43.33984231 16.84208166 -38 13 C-32.97327286 12.82047403 -29.33360742 14.56895194 -25 17 C-24.7421875 16.41992188 -24.484375 15.83984375 -24.21875 15.2421875 C-20.10267894 7.66967216 -9.0889678 -3.01562975 0 0 Z " fill="#DAE1FC" transform="translate(79,155)"/>
<path d="M0 0 C1.23073242 -0.01836914 1.23073242 -0.01836914 2.48632812 -0.03710938 C3.67838867 -0.04000977 3.67838867 -0.04000977 4.89453125 -0.04296875 C5.6213208 -0.04707764 6.34811035 -0.05118652 7.09692383 -0.05541992 C9.48490718 0.222058 11.11086632 1.00557836 13.1875 2.1875 C14.1775 1.5275 15.1675 0.8675 16.1875 0.1875 C18.4921875 -0.21875 18.4921875 -0.21875 21.0625 -0.3125 C21.90554688 -0.3640625 22.74859375 -0.415625 23.6171875 -0.46875 C26.73214745 0.32655892 28.30093034 1.7310942 30.22802734 4.28466797 C32.04659691 7.89126624 31.74622883 11.54983016 31.5625 15.5 C31.54832031 16.32306641 31.53414063 17.14613281 31.51953125 17.99414062 C31.37089233 24.00410767 31.37089233 24.00410767 30.1875 25.1875 C27.1875 25.3125 27.1875 25.3125 24.1875 25.1875 C21.87610113 22.87610113 22.20476586 17.86842219 22.125 14.72265625 C22.125 12.54332904 22.14303386 10.36634066 22.1875 8.1875 C20.2075 8.5175 18.2275 8.8475 16.1875 9.1875 C16.09662109 10.79431641 16.09662109 10.79431641 16.00390625 12.43359375 C15.91951463 13.83074391 15.83486594 15.22787857 15.75 16.625 C15.71068359 17.33205078 15.67136719 18.03910156 15.63085938 18.76757812 C15.30078125 24.07421875 15.30078125 24.07421875 14.1875 25.1875 C11.25 25.4375 11.25 25.4375 8.1875 25.1875 C5.69631047 21.4507157 5.9809774 19.44298181 6.0625 15 C6.08054688 13.72769531 6.09859375 12.45539063 6.1171875 11.14453125 C6.14039063 10.16871094 6.16359375 9.19289062 6.1875 8.1875 C4.52138095 8.144779 2.85367115 8.14686168 1.1875 8.1875 C-0.79337037 10.16837037 -0.17748699 13.96223748 -0.3125 16.6875 C-0.67736486 24.05236486 -0.67736486 24.05236486 -1.8125 25.1875 C-5.3125 25.3125 -5.3125 25.3125 -8.8125 25.1875 C-10.49766954 23.50233046 -9.94258019 21.39982212 -9.9453125 19.09375 C-9.94724609 17.54880859 -9.94724609 17.54880859 -9.94921875 15.97265625 C-9.94535156 14.88855469 -9.94148437 13.80445313 -9.9375 12.6875 C-9.94136719 11.60339844 -9.94523438 10.51929688 -9.94921875 9.40234375 C-9.94792969 8.37238281 -9.94664062 7.34242188 -9.9453125 6.28125 C-9.94418457 5.32927734 -9.94305664 4.37730469 -9.94189453 3.39648438 C-9.63760418 -1.79826857 -4.01709329 0.00311161 0 0 Z " fill="#F4F8FD" transform="translate(235.8125,204.8125)"/>
<path d="M0 0 C0.845625 0.07863281 1.69125 0.15726563 2.5625 0.23828125 C5.0319976 0.69339699 6.82618768 1.45466662 9 2.6875 C8.67 4.6675 8.34 6.6475 8 8.6875 C5 9.6875 5 9.6875 2 8.6875 C-0.33299825 8.64795766 -2.66708189 8.64348268 -5 8.6875 C-5.33 9.3475 -5.66 10.0075 -6 10.6875 C-5.18015625 10.92984375 -4.3603125 11.1721875 -3.515625 11.421875 C-2.43796875 11.75703125 -1.3603125 12.0921875 -0.25 12.4375 C0.81734375 12.76234375 1.8846875 13.0871875 2.984375 13.421875 C6.17920981 14.76271241 7.8226237 16.02059648 10 18.6875 C11.1283728 22.22306811 11.31524936 23.93440431 9.875 27.375 C6.92403584 31.01452246 4.27637995 32.36840501 -0.25 33.5 C-6.07567448 33.79128372 -11.11803089 32.94214607 -16 29.6875 C-15.01 26.2225 -15.01 26.2225 -14 22.6875 C-13.01 22.9040625 -13.01 22.9040625 -12 23.125 C-8.30988955 23.81689571 -4.74711486 24.38035944 -1 24.6875 C-0.34 24.0275 0.32 23.3675 1 22.6875 C0.19175781 22.46835938 -0.61648438 22.24921875 -1.44921875 22.0234375 C-11.28072463 19.10600632 -11.28072463 19.10600632 -14.3125 15.875 C-16 12.6875 -16 12.6875 -16.1875 9.125 C-14.60595684 4.54684876 -13.00674907 3.35866604 -9 0.6875 C-5.87247824 -0.39385846 -3.2742554 -0.33441328 0 0 Z " fill="#F3F8FD" transform="translate(331,197.3125)"/>
<path d="M0 0 C1.2065625 0.9590625 1.2065625 0.9590625 2.4375 1.9375 C1.86405063 4.80474686 1.5760485 5.7989515 -0.5625 7.9375 C-3.29100218 7.55854136 -5.89042737 6.85551816 -8.5625 6.1875 C-12.25583595 5.879722 -13.66834929 6.70486945 -16.5625 8.9375 C-17.96707737 11.74665474 -17.81145157 13.82560534 -17.5625 16.9375 C-16.57215774 19.34133995 -16.57215774 19.34133995 -14.5625 20.9375 C-10.72526029 22.2456499 -8.32902668 22.04801741 -4.6875 20.5 C-3.65625 19.984375 -2.625 19.46875 -1.5625 18.9375 C0.5 20.6875 0.5 20.6875 2.4375 22.9375 C2.5 25 2.5 25 1.4375 26.9375 C-2.33031741 29.92959029 -5.79290952 30.77851365 -10.5625 30.9375 C-15.9575985 29.81583863 -20.72416169 28.00162292 -24.5625 23.9375 C-27.39007481 19.13062283 -27.99422961 15.46656395 -27.1328125 10.078125 C-25.85855641 5.29530078 -23.41130986 2.59179093 -19.5625 -0.375 C-13.29794618 -3.89881152 -6.11949633 -4.09904505 0 0 Z " fill="#F2F7FD" transform="translate(166.5625,200.0625)"/>
<path d="M0 0 C3.3125 -0.3125 3.3125 -0.3125 7 0 C8.75 2.0625 8.75 2.0625 10 5 C10.27714844 5.62390625 10.55429687 6.2478125 10.83984375 6.890625 C11.58603887 8.5824591 12.29596182 10.29019299 13 12 C14.71017726 9.4347341 15.90417811 7.12039035 17.125 4.3125 C17.47820312 3.50425781 17.83140625 2.69601563 18.1953125 1.86328125 C18.46085937 1.24839844 18.72640625 0.63351563 19 0 C21.64 0 24.28 0 27 0 C25.99924878 5.88770875 23.60630095 11.0450952 21.25 16.5 C20.81945312 17.53253906 20.38890625 18.56507813 19.9453125 19.62890625 C17.62116262 25.021769 15.70229488 29.37339349 11 33 C6.87679425 34.17805879 4.94111222 34.46054428 1.0625 32.5625 C0.381875 32.046875 -0.29875 31.53125 -1 31 C-0.1875 28.5625 -0.1875 28.5625 1 26 C4.13349732 24.95550089 4.98968256 25.06576355 8 26 C6.1531112 18.82305494 3.42572249 12.40995516 0.109375 5.78515625 C-1 3 -1 3 0 0 Z " fill="#F3F8FD" transform="translate(351,205)"/>
<path d="M0 0 C2.97361086 2.21563162 4.36959793 3.73919585 6 7 C6.0980731 9.86431142 6.13902649 12.69875884 6.125 15.5625 C6.13080078 16.75262695 6.13080078 16.75262695 6.13671875 17.96679688 C6.12663067 23.87336933 6.12663067 23.87336933 5 25 C2.06682756 25.20781586 -0.81359315 25.32468773 -3.75 25.375 C-4.96816406 25.43107422 -4.96816406 25.43107422 -6.2109375 25.48828125 C-10.60427982 25.55267878 -12.44619878 25.41376762 -16.07421875 22.703125 C-18 20 -18 20 -18.0625 16.375 C-17 13 -17 13 -15.5 11.1875 C-11.8173132 9.43822377 -7.995528 8.7256835 -4 8 C-7.5219721 7.91995518 -10.61981469 7.95994298 -14 9 C-14.99 7.02 -15.98 5.04 -17 3 C-11.52511799 -0.78410962 -6.48498823 -0.98665105 0 0 Z M-9 16 C-8.67 16.99 -8.34 17.98 -8 19 C-6.35 18.67 -4.7 18.34 -3 18 C-3 17.34 -3 16.68 -3 16 C-4.98 16 -6.96 16 -9 16 Z " fill="#F4F8FD" transform="translate(297,205)"/>
<path d="M0 0 C0.85980469 -0.02900391 1.71960938 -0.05800781 2.60546875 -0.08789062 C6.79754178 -0.12987595 9.1349059 -0.05734504 12.796875 2.14453125 C16.49076198 6.2447458 15.90082629 10.72058957 15.875 15.9375 C15.88080078 17.12085938 15.88080078 17.12085938 15.88671875 18.328125 C15.87665394 24.18584606 15.87665394 24.18584606 14.75 25.3125 C11.8125 25.5 11.8125 25.5 8.75 25.3125 C5.89206684 22.45456684 6.34200059 20.16584416 6.125 16.1875 C6.05023438 14.90617188 5.97546875 13.62484375 5.8984375 12.3046875 C5.84945313 11.31726563 5.80046875 10.32984375 5.75 9.3125 C2.78 8.8175 2.78 8.8175 -0.25 8.3125 C-0.31058594 9.45589844 -0.37117188 10.59929687 -0.43359375 11.77734375 C-0.51798428 13.26824305 -0.60263302 14.75912775 -0.6875 16.25 C-0.74647461 17.38211914 -0.74647461 17.38211914 -0.80664062 18.53710938 C-1.13671875 24.19921875 -1.13671875 24.19921875 -2.25 25.3125 C-4.24958364 25.35330783 -6.25045254 25.35504356 -8.25 25.3125 C-10.38456603 20.08998468 -10.52189646 15.53907277 -10.4375 10 C-10.43685547 9.17693359 -10.43621094 8.35386719 -10.43554688 7.50585938 C-10.37057822 -1.25047189 -7.79042864 0.08605039 0 0 Z " fill="#F3F8FD" transform="translate(398.25,204.6875)"/>
<path d="M0 0 C0.495 0.61875 0.99 1.2375 1.5 1.875 C0.5 4.875 0.5 4.875 -2.5 6.875 C-6.01724138 6.35775862 -6.01724138 6.35775862 -7.5 4.875 C-10 4.70833333 -10 4.70833333 -12.5 4.875 C-13.91577477 6.05924326 -13.91577477 6.05924326 -13.5625 9.4375 C-13.541875 10.571875 -13.52125 11.70625 -13.5 12.875 C-10.59926819 13.55301034 -10.59926819 13.55301034 -7.5 13.875 C-6.84 13.215 -6.18 12.555 -5.5 11.875 C-2.48694043 12.26378188 -1.10314689 13.13956874 1.5 14.875 C0.09458486 18.27141991 -1.38492907 19.92944693 -4.5 21.875 C-9.4130294 22.77491132 -13.46186709 22.38462889 -17.9375 20.1875 C-21.74737051 16.74932417 -23.32241462 14.53246355 -23.875 9.375 C-23.33855831 4.3682109 -21.73672374 2.04663301 -18.125 -1.375 C-12.14126996 -5.36415336 -5.43990413 -4.62391851 0 0 Z " fill="#F1F8FD" transform="translate(449.5,208.125)"/>
<path d="M0 0 C4.17911559 6.26867338 3.60502025 14.70748931 3 22 C1.67385497 27.78224372 0.09323993 33.87975057 -3 39 C-5.625 40.25 -5.625 40.25 -8 41 C-8 40.34 -8 39.68 -8 39 C-8.66 39.66 -9.32 40.32 -10 41 C-10.99 41.495 -10.99 41.495 -12 42 C-12.33 42.66 -12.66 43.32 -13 44 C-14 41 -14 41 -12.85546875 38.1796875 C-12.30503906 37.08914062 -11.75460938 35.99859375 -11.1875 34.875 C-6.02753027 23.97906391 -5.84010911 15.8967187 -7 4 C-6.34 3.67 -5.68 3.34 -5 3 C-4.731875 3.78375 -4.46375 4.5675 -4.1875 5.375 C-3.15185568 8.28114923 -3.15185568 8.28114923 0 10 C-0.44703986 5.52116304 -0.44703986 5.52116304 -3 2 C-2.01 1.34 -1.02 0.68 0 0 Z " fill="#E8EEFD" transform="translate(122,187)"/>
<path d="M0 0 C2.9375 0.1875 2.9375 0.1875 3.9375 1.1875 C4.0382812 3.55148468 4.07723215 5.88561311 4.0703125 8.25 C4.07126923 8.95648682 4.07222595 9.66297363 4.07321167 10.39086914 C4.07389333 11.88720793 4.07204005 13.38354967 4.06787109 14.87988281 C4.06252257 17.17780157 4.06781651 19.47552486 4.07421875 21.7734375 C4.07355797 23.22395877 4.0722768 24.67447991 4.0703125 26.125 C4.07233673 26.8166626 4.07436096 27.5083252 4.07644653 28.22094727 C4.05245224 33.07254776 4.05245224 33.07254776 2.9375 34.1875 C-0.0625 34.3125 -0.0625 34.3125 -3.0625 34.1875 C-6.96734035 30.28265965 -5.20056389 16.04073306 -5.25 10.5 C-5.26297119 9.70988525 -5.27594238 8.91977051 -5.28930664 8.10571289 C-5.29253067 6.13152975 -5.18603739 4.15781672 -5.0625 2.1875 C-3.0625 0.1875 -3.0625 0.1875 0 0 Z " fill="#F3F7FD" transform="translate(186.0625,195.8125)"/>
<path d="M0 0 C0.66 0 1.32 0 2 0 C1.67 3.63 1.34 7.26 1 11 C2.32 11.33 3.64 11.66 5 12 C5.33 10.35 5.66 8.7 6 7 C6.33 7 6.66 7 7 7 C7.03867187 8.75763672 7.03867187 8.75763672 7.078125 10.55078125 C7.34863522 18.87983537 7.75432891 26.18866966 11.16015625 33.93359375 C12 36 12 36 12 39 C10.6875 40.6875 10.6875 40.6875 9 42 C8.01 42 7.02 42 6 42 C-1.37326172 28.01331652 -3.39497902 15.57201122 0 0 Z " fill="#EBF1FD" transform="translate(29,187)"/>
<path d="M0 0 C1.134375 0.020625 2.26875 0.04125 3.4375 0.0625 C4.59102646 2.36955292 4.56650617 3.70851799 4.5703125 6.2734375 C4.57224609 7.52253906 4.57224609 7.52253906 4.57421875 8.796875 C4.57035156 9.66828125 4.56648437 10.5396875 4.5625 11.4375 C4.56636719 12.30117187 4.57023438 13.16484375 4.57421875 14.0546875 C4.57292969 14.89 4.57164062 15.7253125 4.5703125 16.5859375 C4.56918457 17.34825684 4.56805664 18.11057617 4.56689453 18.89599609 C4.43720289 21.06747464 4.03413405 22.97516954 3.4375 25.0625 C1.10455225 25.10491723 -1.22952567 25.10342937 -3.5625 25.0625 C-5.24766954 23.37733046 -4.69258019 21.27482212 -4.6953125 18.96875 C-4.69724609 17.42380859 -4.69724609 17.42380859 -4.69921875 15.84765625 C-4.69535156 14.76355469 -4.69148437 13.67945313 -4.6875 12.5625 C-4.69136719 11.47839844 -4.69523438 10.39429688 -4.69921875 9.27734375 C-4.69792969 8.24738281 -4.69664062 7.21742188 -4.6953125 6.15625 C-4.69418457 5.20427734 -4.69305664 4.25230469 -4.69189453 3.27148438 C-4.47458806 -0.43830612 -3.87082091 0.06790914 0 0 Z " fill="#F4F8FD" transform="translate(208.5625,204.9375)"/>
<path d="M0 0 C2.875 1.4375 2.875 1.4375 4.3125 3.25 C5.04105815 6.08328171 4.86379161 7.68300909 3.875 10.4375 C2.1875 12.3125 2.1875 12.3125 -0.125 13.4375 C-3.1875 13.4375 -3.1875 13.4375 -6.125 12.4375 C-8.125 10.1875 -8.125 10.1875 -9.125 7.4375 C-8.46809871 4.37196065 -7.46620953 2.8152677 -5.375 0.5 C-3.125 -0.5625 -3.125 -0.5625 0 0 Z " fill="#D9E1FD" transform="translate(78.125,170.5625)"/>
<path d="M0 0 C5.56818182 0.56818182 5.56818182 0.56818182 7 2 C7.25 4.9375 7.25 4.9375 7 8 C4 10 4 10 1.4375 9.75 C-1 9 -1 9 -3 7 C-2.67028521 3.70285207 -2.3773161 2.3773161 0 0 Z " fill="#F4F8FD" transform="translate(206,194)"/>
<path d="M0 0 C0.66 0 1.32 0 2 0 C0.75023244 3.65316671 0.32901247 4.78065836 -3 7 C-3.99 7 -4.98 7 -6 7 C-6 6.34 -6 5.68 -6 5 C-5.38125 4.731875 -4.7625 4.46375 -4.125 4.1875 C-1.7004767 3.04443152 -1.7004767 3.04443152 0 0 Z " fill="#DFEBFE" transform="translate(81,177)"/>
</svg>